<svg width="14" height="14" viewBox="0 0 14 14" fill="none" xmlns="http://www.w3.org/2000/svg">
<path d="M7.00002 12.8334C3.77827 12.8334 1.16669 10.2218 1.16669 7.00008C1.16669 3.77833 3.77827 1.16675 7.00002 1.16675C10.2218 1.16675 12.8334 3.77833 12.8334 7.00008C12.8334 10.2218 10.2218 12.8334 7.00002 12.8334ZM7.00002 11.6667C8.2377 11.6667 9.42468 11.1751 10.2999 10.2999C11.175 9.42474 11.6667 8.23776 11.6667 7.00008C11.6667 5.7624 11.175 4.57542 10.2999 3.70025C9.42468 2.82508 8.2377 2.33341 7.00002 2.33341C5.76234 2.33341 4.57536 2.82508 3.70019 3.70025C2.82502 4.57542 2.33335 5.7624 2.33335 7.00008C2.33335 8.23776 2.82502 9.42474 3.70019 10.2999C4.57536 11.1751 5.76234 11.6667 7.00002 11.6667ZM6.41844 9.33342L3.94335 6.85833L4.76819 6.0335L6.41844 7.68375L9.71777 4.38383L10.5432 5.20866L6.41844 9.33342Z" fill="#12100E" fill-opacity="0.7"/>
</svg>
